<svg width="326" height="32" viewBox="0 0 326 32" fill="none" xmlns="http://www.w3.org/2000/svg">
<rect width="326" height="32" rx="16" fill="#F2F2F2"/>
<path d="M30 21.9999L27.0093 19.0039L30 21.9999ZM28.6667 14.9999C28.6667 16.5028 28.0696 17.9442 27.0069 19.0069C25.9442 20.0696 24.5029 20.6666 23 20.6666C21.4971 20.6666 20.0558 20.0696 18.9931 19.0069C17.9304 17.9442 17.3333 16.5028 17.3333 14.9999C17.3333 13.497 17.9304 12.0557 18.9931 10.993C20.0558 9.93027 21.4971 9.33325 23 9.33325C24.5029 9.33325 25.9442 9.93027 27.0069 10.993C28.0696 12.0557 28.6667 13.497 28.6667 14.9999V14.9999Z" stroke="#4F4F4F" stroke-width="2" stroke-linecap="round"/>
</svg>
